<svg width="161" height="35" viewBox="0 0 161 35" fill="none" xmlns="http://www.w3.org/2000/svg">
<path d="M12.7962 6.26243H21.7644L26.2121 1.62836H7.07245V8.86904H12.7962V6.26243ZM12.7962 22.3367V18.499L7.07245 24.4362V26.9705H26.3944V22.336L12.7962 22.3367ZM21.2907 11.9461H4.44764L0 16.5802H21.2907V11.9461Z" fill="white"/>
<path d="M42.2984 16.9062L48.1315 7.49313H42.1164L38.5801 13.5028L35.2626 7.49313H28.9556L34.8253 16.9424L28.5548 26.8621H34.57L38.5803 20.3454L42.153 26.8621H48.4964L42.2984 16.9062Z" fill="white"/>
<path d="M63.076 7.27516C60.8521 7.27516 58.9566 8.21647 57.644 9.99042L57.1701 10.6421V7.45618H51.6287V34.0296H57.1701V23.6391L57.644 24.2907C58.9564 26.1009 60.8886 27.0422 63.2219 27.0422C68.3621 27.0422 71.6798 23.1683 71.6798 17.1949C71.6798 11.2215 68.2165 7.20276 63.076 7.20276V7.27516ZM61.6177 22.5168C59.7584 22.5168 58.045 21.3582 57.2066 19.5119V14.5539C58.0451 12.7438 59.7585 11.5853 61.6177 11.5853C64.2791 11.5853 66.1383 13.8299 66.1383 17.0158C66.1383 20.2379 64.279 22.4825 61.6177 22.4825V22.5168Z" fill="white"/>
<path d="M90.9742 9.81036C89.3701 8.14499 87.1097 7.27612 84.2661 7.27612C78.5423 7.27612 74.6782 11.2949 74.6782 17.2683C74.6782 23.2417 78.5062 27.1156 84.4484 27.1156C87.6566 27.1156 90.3906 25.9933 92.3229 23.8573L89.4793 20.9248C88.2033 22.1557 86.5992 22.8436 84.9222 22.8436C82.5526 22.8436 80.8389 21.4316 80.2193 18.9697L80.1464 18.6439H93.5258C93.7081 14.8062 92.8331 11.7654 90.9738 9.81031L90.9742 9.81036ZM88.2399 15.7476H80.0737L80.1102 15.4579C80.5477 12.8513 82.1518 11.2222 84.3025 11.2222C86.6357 11.2222 88.2035 12.96 88.2035 15.5304L88.2399 15.7476Z" fill="white"/>
<path d="M111.012 0V10.6799L110.538 10.0283C109.225 8.21811 107.293 7.2768 104.923 7.2768C99.8927 7.2768 96.502 11.2231 96.502 17.1241C96.502 23.1337 99.9289 27.1525 105.069 27.1525C107.33 27.1525 109.225 26.2112 110.538 24.401L111.012 23.7493V26.9352H116.553V0.0361842L111.012 0ZM111.012 19.767C110.173 21.6134 108.423 22.7719 106.528 22.7719C103.866 22.7719 102.044 20.5635 102.007 17.3052C102.044 14.0469 103.866 11.8747 106.528 11.8747C108.423 11.8747 110.137 12.997 110.975 14.8072L111.012 19.767Z" fill="white"/>
<path d="M136.686 9.81036C135.082 8.14499 132.822 7.27612 129.978 7.27612C124.254 7.27612 120.39 11.2949 120.39 17.2683C120.39 23.2417 124.218 27.1156 130.16 27.1156C133.369 27.1156 136.103 25.9933 138.035 23.8573L135.191 20.9248C133.915 22.1557 132.311 22.8436 130.634 22.8436C128.265 22.8436 126.551 21.4316 125.931 18.9697L125.858 18.6439H139.238C139.42 14.8062 138.545 11.7654 136.686 9.81031L136.686 9.81036ZM133.952 15.7476H125.786L125.822 15.4579C126.26 12.8513 127.864 11.2222 130.015 11.2222C132.348 11.2222 133.916 12.96 133.916 15.5304L133.952 15.7476Z" fill="white"/>
<path d="M155.605 7.49313L151.34 20.7797L146.491 7.49313H140.84L148.605 26.7172L148.095 27.8033C147.548 28.9618 146.673 29.5411 145.47 29.5411C144.631 29.5411 143.902 29.2515 143.064 28.5998L140.803 32.5099C142.408 33.777 144.012 34.3563 145.944 34.3563C149.334 34.3563 151.631 32.6547 152.98 29.1431L161 7.52967H155.532L155.605 7.49313Z" fill="white"/>
</svg>
